<?xml version="1.0" encoding="utf-8"?>
<!-- Generator: Adobe Illustrator 25.1.0, SVG Export Plug-In . SVG Version: 6.00 Build 0)  -->
<svg version="1.1" id="Layer_1" xmlns="http://www.w3.org/2000/svg" xmlns:xlink="http://www.w3.org/1999/xlink" x="0px" y="0px"
	 viewBox="0 0 2100 600" style="enable-background:new 0 0 2100 600;" xml:space="preserve">
<style type="text/css">
	.st0{fill:#FFE600;}
	.st1{fill:#FFFFFF;}
</style>
<g>
	<g>
		<g>
			<polygon class="st0" points="353.7,339.1 300,391.5 246.3,339.1 206.6,300.3 206.6,377.8 300,469 393.4,377.8 393.4,300.3 			"/>
		</g>
		<g>
			<g>
				<path class="st1" d="M600,467.8L599.2,314L341.9,127.9l51.6-50.3V0l-39.7,38.8L300,91.2l-53.7-52.4L206.6,0v77.5l51.6,50.3
					L0.9,314L0,467.8l244-242.5v62.7l56,54.7l56-54.7v-62.7L600,467.8z M251.6,217.8l48.5-47.3l48.5,47.3L300,265.1L251.6,217.8z"/>
			</g>
			<g>
				<polygon class="st1" points="300,522.5 246.3,470 244,467.8 244,545.3 300,600 356.1,545.3 356.1,467.8 353.7,470 				"/>
			</g>
		</g>
	</g>
	<g>
		<g>
			<path class="st1" d="M953.7,16.7h26.7l-83.1,219.7h-26.7L816.8,93.7l-54.1,142.7h-26.4L653.2,16.7h26.4l69.9,184.6l53.8-142.7
				H830l53.8,142.7L953.7,16.7z"/>
		</g>
		<g>
			<path class="st1" d="M1092.5,79.2h24.8v157.2h-24.8v-21.3c-13.9,13.2-32.9,21.3-53.5,21.3c-43.5,0-78.6-35.1-78.6-78.6
				c0-43.5,35.1-78.6,78.6-78.6c20.6,0,39.6,8.1,53.5,21.3V79.2z M1092.5,157.8c0-29.6-23.8-53.8-53.5-53.8
				c-29.6,0-53.8,24.2-53.8,53.8c0,29.6,24.2,53.8,53.8,53.8C1068.6,211.6,1092.5,187.4,1092.5,157.8z"/>
		</g>
		<g>
			<path class="st1" d="M1280.4,144.6v91.8h-24.8v-91.8c-0.6-22.2-18.7-40.6-41.2-40.6s-40.9,18.4-41.2,40.6v91.8h-24.8V79.2h24.8
				v14.5c11.3-9,25.5-14.5,41.2-14.5C1250.5,79.2,1280.1,108.5,1280.4,144.6z"/>
		</g>
		<g>
			<path class="st0" d="M1471.7,176.5c-1.3,33.8-37.7,61.2-84.4,61.2c-36.7,0-68-16.8-79.6-40.3c-5.8-10.6-7.1-20-7.1-20h26.7
				c1,16.8,25.1,35.1,59.9,35.1c35.1,0,58.6-19,59.6-36.1c1-13.9-10-25.8-30-31.2c-30-7.7-52.5-6.1-78.3-17.4
				c-21.9-11-36.1-29.3-36.1-49.9c0-33.8,38-61.2,84.7-61.2c33.5,0,62.5,14.2,76,34.5c5.8,9.3,7.1,18.4,7.1,18.4H1445
				c-6.1-14.5-28.3-28-57.7-28c-35.4,0-59.9,19.3-59.9,36.4c0,21.6,31.9,31.9,33.2,32.2c16.4,4.8,55.4,11,70.9,15.1
				c1.9,0.3,6.4,2.3,7.7,2.6C1456.2,134.6,1472.7,152.6,1471.7,176.5z"/>
		</g>
		<g>
			<path class="st0" d="M1721.6,79.2h26.4l-57.7,157.2H1664l-48-130.5l-48,130.5h-26.4l-57.7-157.2h26.4l44.5,121.1l44.5-121.1h33.5
				l44.5,121.1L1721.6,79.2z"/>
		</g>
		<g>
			<path class="st0" d="M1887.2,79.2h24.8v157.2h-24.8v-21.3c-13.9,13.2-32.9,21.3-53.5,21.3c-43.5,0-78.6-35.1-78.6-78.6
				c0-43.5,35.1-78.6,78.6-78.6c20.6,0,39.6,8.1,53.5,21.3V79.2z M1887.2,157.8c0-29.6-23.8-53.8-53.5-53.8
				c-29.6,0-53.8,24.2-53.8,53.8c0,29.6,24.2,53.8,53.8,53.8C1863.4,211.6,1887.2,187.4,1887.2,157.8z"/>
		</g>
		<g>
			<path class="st0" d="M2100,157.8c0,43.5-35.1,78.6-78.3,78.6c-20.9,0-39.6-8.1-53.8-21.3v106h-24.8V157.8V79.2h24.8v21.3
				c14.2-13.2,32.9-21.3,53.8-21.3C2064.8,79.2,2100,114.3,2100,157.8z M2075.2,157.8c0-29.6-24.2-53.8-53.5-53.8
				c-29.6,0-53.8,24.2-53.8,53.8c0,29.6,24.2,53.8,53.8,53.8C2051,211.6,2075.2,187.4,2075.2,157.8z"/>
		</g>
	</g>
	<g>
		<path class="st1" d="M922.5,543.2h-35c-3.9,0-7.2-1-9.7-2.9c-2.5-1.9-4.4-4.3-5.5-7.1l-18.2-48.3H753.2L735,533.2
			c-0.9,2.5-2.7,4.8-5.3,6.9c-2.6,2.1-5.9,3.1-9.7,3.1h-35.2l95.7-236.9h46.3L922.5,543.2z M764.8,453.7h77.7l-29.6-78.8
			c-1.3-3.5-2.8-7.6-4.5-12.4c-1.6-4.8-3.2-9.9-4.8-15.5c-1.6,5.6-3.1,10.8-4.6,15.6c-1.5,4.8-3,9-4.5,12.6L764.8,453.7z"/>
		<path class="st1" d="M945.2,543.2V375.1h25.4c5.4,0,8.9,2.5,10.6,7.4l2.9,13.3c3.5-3.5,7.2-6.7,11-9.5c3.9-2.8,8-5.3,12.3-7.4
			c4.3-2.1,9-3.7,13.9-4.8c4.9-1.1,10.3-1.6,16.2-1.6c9.4,0,17.8,1.6,25.1,4.7s13.4,7.5,18.3,13.1s8.6,12.3,11.1,20.2
			c2.5,7.8,3.8,16.4,3.8,25.8v107h-41.6v-107c0-10.3-2.4-18.2-7.3-23.8c-4.9-5.6-12.2-8.4-22-8.4c-7.2,0-13.9,1.6-20.2,4.8
			c-6.3,3.2-12.2,7.5-17.9,12.9v121.6H945.2z"/>
		<path class="st1" d="M1272.2,543.2h-18.7c-3.9,0-7-0.6-9.3-1.7c-2.2-1.1-3.9-3.5-5.1-7l-3.7-12c-4.4,3.8-8.7,7.2-12.9,10.1
			c-4.2,2.9-8.6,5.3-13.1,7.3c-4.5,2-9.3,3.4-14.3,4.4c-5.1,1-10.7,1.5-16.8,1.5c-7.3,0-14-1-20.2-2.9c-6.2-1.9-11.5-4.8-15.9-8.6
			c-4.4-3.8-7.9-8.6-10.4-14.3s-3.7-12.3-3.7-19.9c0-6.4,1.7-12.6,5.1-18.8c3.4-6.2,9.1-11.8,17.1-16.8c8-5,18.6-9.1,31.8-12.4
			c13.3-3.3,29.7-4.9,49.4-4.9v-9.9c0-11.3-2.4-19.7-7.3-25.2c-4.9-5.4-12-8.2-21.3-8.2c-6.7,0-12.4,0.8-16.8,2.3
			c-4.5,1.5-8.4,3.3-11.7,5.2c-3.3,1.9-6.4,3.6-9.2,5.2c-2.8,1.5-5.9,2.3-9.3,2.3c-2.8,0-5.2-0.7-7.2-2.1c-2-1.4-3.6-3.2-4.9-5.2
			l-7.6-12.9c19.9-17.7,43.9-26.5,71.9-26.5c10.1,0,19.1,1.6,27,4.8c7.9,3.2,14.6,7.7,20.1,13.4c5.5,5.7,9.7,12.6,12.5,20.6
			c2.9,8,4.3,16.7,4.3,26.2V543.2z M1191.3,518c4.3,0,8.2-0.4,11.8-1.1c3.6-0.8,7-1.9,10.2-3.4c3.2-1.5,6.3-3.4,9.3-5.6
			c3-2.2,6-4.8,9-7.8v-28.1c-12.1,0-22.3,0.7-30.4,2.2c-8.1,1.5-14.7,3.4-19.6,5.7c-4.9,2.3-8.5,5-10.5,8.1
			c-2.1,3.1-3.1,6.4-3.1,10.1c0,7.2,2.2,12.3,6.5,15.4C1178.7,516.4,1184.4,518,1191.3,518z"/>
		<path class="st1" d="M1357.4,299.7v243.5h-41.6V299.7H1357.4z"/>
		<path class="st1" d="M1465.7,589.4c-1.2,2.8-2.8,5-4.8,6.5c-2,1.5-5,2.2-9,2.2h-31l32.3-67.3l-69.9-155.7h36.4
			c3.4,0,6,0.8,7.7,2.3c1.8,1.5,3.1,3.3,4,5.2l36.9,87.2c1.2,2.8,2.3,5.8,3.2,8.8c0.9,3.1,1.7,6.1,2.4,9.2c0.9-3.2,1.9-6.2,2.9-9.2
			c1.1-2.9,2.2-6,3.5-9l34.7-87c0.9-2.2,2.4-4,4.5-5.4c2.1-1.4,4.4-2.1,7-2.1h33.3L1465.7,589.4z"/>
		<path class="st1" d="M1640.9,545.8c-14.9,0-26.4-4.1-34.5-12.4c-8.1-8.2-12.1-19.6-12.1-34.2v-93.9h-17.5c-2.2,0-4.2-0.7-5.8-2.1
			c-1.6-1.4-2.4-3.5-2.4-6.4v-16.1l27.8-4.4l8.8-45.9c0.4-2.2,1.5-3.9,3.1-5.1c1.6-1.2,3.7-1.8,6.1-1.8h21.6v52.9h45.5v28.8h-45.5
			v91.1c0,5.2,1.3,9.3,4,12.3c2.7,2.9,6.3,4.4,10.8,4.4c2.6,0,4.7-0.3,6.5-0.9c1.7-0.6,3.3-1.2,4.5-1.9c1.3-0.7,2.4-1.3,3.5-1.9
			c1-0.6,2-0.9,3-0.9c1.2,0,2.2,0.3,3,0.9c0.8,0.6,1.6,1.5,2.5,2.7l12.5,19.7c-6.1,4.9-13,8.6-20.9,11.1
			C1657.4,544.6,1649.3,545.8,1640.9,545.8z"/>
		<path class="st1" d="M1765,326.1c0,3.5-0.7,6.8-2.2,9.8c-1.5,3.1-3.4,5.7-5.8,8c-2.4,2.3-5.3,4.1-8.5,5.5c-3.3,1.4-6.7,2-10.4,2
			c-3.6,0-7-0.7-10.2-2c-3.2-1.4-6-3.2-8.3-5.5c-2.4-2.3-4.2-5-5.6-8c-1.4-3.1-2.1-6.3-2.1-9.8c0-3.6,0.7-7,2.1-10.2
			c1.4-3.2,3.3-5.9,5.6-8.2c2.4-2.3,5.1-4.1,8.3-5.5c3.2-1.4,6.6-2,10.2-2c3.7,0,7.2,0.7,10.4,2c3.3,1.4,6.1,3.2,8.5,5.5
			c2.4,2.3,4.4,5,5.8,8.2C1764.3,319.1,1765,322.5,1765,326.1z M1758.8,375.1v168.1h-41.6V375.1H1758.8z"/>
		<path class="st1" d="M1927.2,410.6c-1.2,1.5-2.4,2.7-3.6,3.6c-1.2,0.9-2.9,1.3-5.1,1.3c-2.1,0-4.2-0.6-6.2-1.9
			c-2-1.3-4.4-2.7-7.2-4.3c-2.8-1.6-6.1-3-10-4.3c-3.9-1.3-8.7-1.9-14.4-1.9c-7.3,0-13.7,1.3-19.2,3.8c-5.5,2.6-10.1,6.3-13.7,11.1
			c-3.6,4.8-6.4,10.6-8.2,17.5c-1.8,6.8-2.7,14.6-2.7,23.2c0,9,1,16.9,2.9,23.9c2,7,4.8,12.9,8.5,17.6c3.7,4.8,8.2,8.4,13.5,10.8
			c5.3,2.5,11.2,3.7,17.9,3.7c6.6,0,12-0.8,16.1-2.4c4.1-1.6,7.5-3.3,10.4-5.2c2.8-1.9,5.2-3.7,7.3-5.2c2.1-1.6,4.4-2.4,7-2.4
			c3.4,0,5.9,1.3,7.6,3.8l12,14.8c-4.6,5.2-9.6,9.6-15,13.2c-5.4,3.6-11,6.4-16.8,8.5c-5.8,2.1-11.8,3.6-17.9,4.5
			c-6.2,0.9-12.3,1.3-18.4,1.3c-10.7,0-20.7-1.9-30.2-5.8c-9.4-3.9-17.7-9.5-24.7-17c-7-7.4-12.6-16.5-16.7-27.3
			c-4.1-10.8-6.1-23-6.1-36.8c0-12.3,1.8-23.8,5.5-34.3c3.6-10.5,9-19.7,16.1-27.4c7.1-7.7,15.8-13.7,26.3-18.1
			c10.4-4.4,22.5-6.6,36-6.6c12.9,0,24.2,2,33.9,6.1c9.7,4,18.4,9.8,26.2,17.4L1927.2,410.6z"/>
		<path class="st1" d="M2069.1,407.9c-1.1,1.7-2.3,3-3.5,3.7c-1.2,0.7-2.8,1.1-4.7,1.1c-2,0-4.2-0.5-6.5-1.6c-2.3-1.1-5-2.3-8-3.7
			c-3-1.4-6.5-2.6-10.4-3.7c-3.9-1.1-8.4-1.6-13.7-1.6c-8.2,0-14.7,1.7-19.4,5.1c-4.7,3.4-7.1,7.8-7.1,13.3c0,3.6,1.2,6.6,3.6,9.1
			c2.4,2.5,5.6,4.6,9.6,6.5c4,1.9,8.5,3.5,13.6,5c5.1,1.5,10.2,3.1,15.5,4.8c5.3,1.8,10.4,3.7,15.5,6c5.1,2.2,9.6,5.1,13.6,8.5
			c4,3.4,7.2,7.6,9.6,12.4c2.4,4.8,3.6,10.6,3.6,17.4c0,8.1-1.5,15.5-4.5,22.4c-3,6.8-7.5,12.7-13.3,17.7c-5.8,5-13.1,8.8-21.6,11.6
			c-8.6,2.8-18.4,4.2-29.6,4.2c-6,0-11.8-0.5-17.4-1.6c-5.7-1-11.1-2.5-16.3-4.3c-5.2-1.9-10.1-4-14.5-6.6
			c-4.4-2.5-8.3-5.2-11.7-8.2l9.6-15.4c1.2-1.9,2.7-3.3,4.4-4.3c1.7-1,3.8-1.5,6.4-1.5c2.6,0,5,0.7,7.3,2.1c2.3,1.4,5,3,8,4.6
			c3,1.6,6.6,3.2,10.7,4.6c4.1,1.4,9.3,2.1,15.6,2.1c4.9,0,9.2-0.6,12.7-1.7c3.5-1.1,6.5-2.6,8.8-4.5c2.3-1.9,4-4,5.1-6.5
			c1.1-2.5,1.6-5,1.6-7.6c0-3.9-1.2-7.2-3.6-9.7c-2.4-2.5-5.6-4.7-9.6-6.6c-4-1.9-8.5-3.5-13.6-5c-5.1-1.5-10.3-3.1-15.7-4.8
			c-5.3-1.7-10.6-3.8-15.7-6.1c-5.1-2.3-9.7-5.3-13.6-8.9c-4-3.6-7.2-8-9.6-13.3c-2.4-5.2-3.6-11.6-3.6-19c0-6.9,1.4-13.4,4.2-19.7
			c2.8-6.2,6.9-11.7,12.4-16.3c5.4-4.6,12.2-8.4,20.4-11.1c8.1-2.8,17.5-4.2,28.2-4.2c11.9,0,22.7,1.9,32.5,5.7
			c9.8,3.8,17.9,8.8,24.4,15.1L2069.1,407.9z"/>
	</g>
</g>
</svg>
